<?xml version="1.0" encoding="UTF-8" standalone="no"?>
<!-- Created with Inkscape (http://www.inkscape.org/) -->

<svg
   width="210mm"
   height="297mm"
   viewBox="0 0 210 297"
   version="1.1"
   id="svg5"
   xmlns="http://www.w3.org/2000/svg"
   xmlns:svg="http://www.w3.org/2000/svg">
  <defs
     id="defs2" />
  <g
     id="layer1">
    <path
       style="fill:#ff6600;stroke-width:0.264583"
       d="m 48.714038,74.792242 c 0,0 -4.909215,-18.822988 -7.318376,-28.57562 -1.169088,-4.732638 -1.669497,-16.108315 4.404723,-20.820019 1.969337,-1.527592 4.524963,-2.12617 7.33261,-2.088147 2.807647,0.03802 7.026772,-0.159298 10.004192,0.85951 5.954841,2.037616 8.557243,9.980927 6.25493,23.252201 -2.302313,13.271273 -6.441775,27.463839 -6.441775,27.463839 z"
       id="path167" />
    <path
       style="fill:#008000;stroke-width:0.222045"
       d="m 51.60447,24.170881 c -0.277615,-0.48273 -0.19703,-1.424319 -0.516398,-1.880145 -0.350971,-0.500935 -0.715213,-0.99099 -1.07229,-1.487581 -0.241479,-0.335827 -0.480049,-0.678901 -0.728727,-1.009821 -0.670712,-0.892527 -0.804836,-1.520414 -1.477517,-0.561065 -0.479181,0.683385 -1.253718,1.46177 -2.15498,0.86866 -0.729172,-0.479861 -0.621449,-1.667012 -0.562165,-2.421393 0.0087,-0.111167 -0.03364,-0.248023 0.0395,-0.332191 0.117427,-0.135121 0.678306,-0.210657 0.499859,-0.19638 -1.43481,0.114802 -2.328042,-1.066503 -1.114168,-2.140947 0.267771,-0.237014 0.906327,0.119131 1.198354,-0.05094 0.136252,-0.07935 -0.282035,-0.193961 -0.32201,-0.346481 -0.07464,-0.284735 -0.05121,-0.586805 -0.09369,-0.878076 -0.121263,-0.831444 2.491039,-0.810255 2.973829,-0.751011 0.922789,0.113236 1.263395,1.190046 1.779124,1.822067 0.66538,0.815418 1.31275,1.673138 1.993861,2.478161 0.644888,0.762209 2.861726,5.49548 3.28917,6.418126 0.443721,0.957786 -1.591406,-0.361869 -1.238477,0.630097"
       id="path393" />
    <path
       style="fill:#008000;stroke-width:0.198797"
       d="m 54.144659,23.670724 c -0.197171,-1.931353 -0.950788,-7.626051 -0.978043,-9.572641 -0.0078,-0.556716 -0.01775,-1.106643 -0.0466,-1.662362 -0.0032,-0.06019 -0.05752,-0.162797 0,-0.180803 0.277398,-0.08685 0.946968,4.495617 -0.319052,4.303598 -0.97167,-0.147374 -1.136257,-1.139132 -1.435366,-1.924842 -0.337049,-0.885379 -0.832423,-1.817135 -0.745641,-2.799772 0.135424,-1.533479 1.679352,-2.3917877 2.945288,-1.607322 0.02938,0.01821 -0.008,-0.0701 0,-0.103716 0.05313,-0.2218486 0.08446,-0.4525853 0.177087,-0.6610561 0.0868,-0.1953672 0.220058,-0.3682051 0.354185,-0.5346787 0.796748,-0.9889047 1.714232,-1.2854896 2.535183,-0.097212 0.166554,0.2410793 0.170679,0.4965614 0.312375,0.7435726 0.0403,0.070247 0.224702,-0.314369 1.03571,-0.5671038 0.976905,-0.3044335 1.934659,0.012476 2.389669,1.115878 0.577983,1.401612 0.859348,3.932835 -0.297524,5.043436 -0.07627,0.07323 -0.346233,0.07918 -0.370451,0.08244 -1.160765,0.156229 -1.183451,-0.03975 -1.61846,1.523071 -0.349086,1.254132 0.215552,2.678488 0.316901,3.946898 0.08876,1.110811 0.116277,2.205086 0.249191,3.302282"
       id="path395" />
    <path
       style="fill:#008000;stroke-width:0.158128"
       d="m 57.649536,23.646617 c 0.598079,-1.173576 1.705338,-3.374121 2.230211,-4.581151 0.320504,-0.737054 0.696106,-1.508716 1.156553,-2.172885 0.131035,-0.189011 0.262875,-0.389864 0.398795,-0.576555 0.09283,-0.127509 0.280593,-0.538717 0.280593,-0.380993 0,0.0883 1.55e-4,0.197792 -0.01701,0.266 -0.02804,0.111407 -0.237306,0.550609 -0.281729,0.641816 -0.04117,0.08454 -0.109722,0.334188 -0.139759,0.245074 -0.327448,-0.971483 -0.131069,-3.376519 0.719888,-4.127522 0.401668,-0.354488 1.203776,-0.510969 1.56789,-0.07581 0.216442,0.258675 0.229698,0.506282 0.24466,0.826418 0.002,0.0432 -0.02333,0.166149 0,0.129733 0.539736,-0.842641 1.47933,-1.607248 2.492836,-1.795442 0.165815,-0.03079 0.147873,0.309701 0.168416,0.477094 0.117273,0.955579 -0.192904,1.630537 -0.518561,2.5041 -0.04872,0.130666 0.177648,-0.216345 0.281178,-0.309767 0.137199,-0.123805 1.09239,-0.755178 1.166893,-0.645939 0.217475,0.318875 0.08171,0.800024 -0.125346,1.103541 -1.155883,1.694354 -3.333553,2.083993 -4.921573,3.215795 -1.554283,1.107756 -1.92426,2.925896 -2.457828,4.635939 -0.06753,0.216452 -0.0078,0.495392 -0.04883,0.728129"
       id="path397" />
    <circle
       style="fill:#2b0000;stroke-width:0.388191"
       id="path611"
       cx="47.593723"
       cy="37.403481"
       r="2.7430377" />
    <ellipse
       style="fill:#ffffff;stroke-width:0.264583"
       id="path744"
       cx="25.729691"
       cy="53.585754"
       rx="1.3448972"
       ry="0.90236741"
       transform="rotate(-26.584334)" />
    <circle
       style="fill:#2b0000;stroke-width:0.388191"
       id="path611-6"
       cx="58.91206"
       cy="37.652405"
       r="2.7430377" />
    <ellipse
       style="fill:#ffffff;stroke-width:0.264583"
       id="path744-7"
       cx="37.341042"
       cy="57.871254"
       rx="1.3448972"
       ry="0.90236741"
       transform="rotate(-25.012936)" />
    <ellipse
       style="fill:#ffffff;stroke-width:0.264583"
       id="path793"
       cx="49.01918"
       cy="37.869225"
       rx="0.62308145"
       ry="0.64368874" />
    <ellipse
       style="fill:#ffffff;stroke-width:0.264583"
       id="path793-5"
       cx="60.383095"
       cy="37.878777"
       rx="0.62308145"
       ry="0.64368874" />
  </g>
</svg>
