<?xml version="1.0" encoding="UTF-8" standalone="no"?>
<svg
   version="1.0"
   width="32pt"
   height="32pt"
   viewBox="0 0 32 32"
   preserveAspectRatio="xMidYMid"
   id="svg2200"
   sodipodi:docname="refresh.svg"
   inkscape:version="1.2.2 (b0a8486541, 2022-12-01)"
   xmlns:inkscape="http://www.inkscape.org/namespaces/inkscape"
   xmlns:sodipodi="http://sodipodi.sourceforge.net/DTD/sodipodi-0.dtd"
   xmlns="http://www.w3.org/2000/svg"
   xmlns:svg="http://www.w3.org/2000/svg">
  <defs
     id="defs2204" />
  <sodipodi:namedview
     id="namedview2202"
     pagecolor="#ffffff"
     bordercolor="#000000"
     borderopacity="0.25"
     inkscape:showpageshadow="2"
     inkscape:pageopacity="0.0"
     inkscape:pagecheckerboard="0"
     inkscape:deskcolor="#d1d1d1"
     inkscape:document-units="pt"
     showgrid="false"
     inkscape:zoom="9.1901538"
     inkscape:cx="21.816827"
     inkscape:cy="22.524106"
     inkscape:window-width="1440"
     inkscape:window-height="828"
     inkscape:window-x="0"
     inkscape:window-y="0"
     inkscape:window-maximized="1"
     inkscape:current-layer="layer1" />
  <path
     d="m 14.841959,-0.37736789 c -0.137541,0.0101133 -0.425128,0.0328683 -0.637691,0.0480383 C 8.8726758,0.05750477 4.0387316,3.159765 1.4304526,7.8649862 c -0.98029283,1.7723589 -1.620484,3.7596258 -1.86805795,5.8126298 -0.0525157,0.4374 -0.13754108,1.625716 -0.13754108,1.916473 0,0.134002 0.010003,0.369137 0.0250075,0.520837 0.0125037,0.154228 0.0350105,0.457626 0.0500149,0.672535 0.207562,2.897465 1.2553749,5.746893 2.99839553,8.153862 1.2778817,1.769831 2.9458799,3.286829 4.8414462,4.411936 0.5051507,0.298344 1.5754701,0.824235 2.1256349,1.046728 1.3904154,0.556232 2.8058384,0.912727 4.2637734,1.074541 0.240072,0.02781 0.747723,0.06827 1.127837,0.09355 0.722716,0.04804 0.725217,0.04804 1.923075,-0.04298 3.150941,-0.237663 6.19435,-1.433563 8.702599,-3.423358 0.895267,-0.71046 1.427927,-1.248995 3.048411,-3.082033 0.722715,-0.819178 1.317893,-1.501829 1.322894,-1.519527 0.0049,-0.02023 -4.313789,-3.941667 -4.791431,-4.348727 l -0.07752,-0.06574 -1.332898,1.511939 c -1.627987,1.845681 -1.955585,2.159194 -2.883362,2.776107 -1.265378,0.839405 -2.555764,1.312201 -4.15124,1.522054 -0.482644,0.0632 -1.698007,0.0632 -2.193155,0 C 12.468747,24.648038 10.83576,23.942633 9.3278093,22.693639 9.0202165,22.440806 8.3275101,21.725288 8.0699329,21.399134 6.9045849,19.922589 6.2743966,18.398007 6.0468287,16.509344 c -0.042513,-0.351437 -0.042513,-1.547337 0,-1.896247 0.1475442,-1.185786 0.4076218,-2.093456 0.880263,-3.07192 C 7.5622813,10.223918 8.4825565,9.0988111 9.6654096,8.1911406 11.03832,7.1368274 12.591284,6.5173866 14.429333,6.2898369 c 0.347604,-0.042982 1.650493,-0.042982 2.000598,0 1.250372,0.1542282 2.335696,0.4753261 3.3485,0.9911052 0.775231,0.3918911 1.547963,0.935482 2.213162,1.5523941 0.265077,0.2452479 1.215361,1.2970328 1.215361,1.3450718 0,0.01517 -0.687705,0.639667 -1.527957,1.390581 -1.377912,1.226239 -1.522954,1.36277 -1.470439,1.380468 0.03251,0.01011 1.410421,0.338795 3.060916,0.728159 1.650493,0.39189 3.721111,0.882386 4.601374,1.08971 3.105928,0.735743 3.541057,0.836876 3.55106,0.826763 0.0075,-0.005 0,-0.106189 -0.015,-0.225021 -0.0125,-0.116303 -0.115034,-1.908888 -0.222567,-3.979591 -0.110033,-2.07323 -0.210063,-3.9720051 -0.225066,-4.2223097 -0.0125,-0.2503046 -0.03501,-0.6775922 -0.05001,-0.9481235 -0.015,-0.2705313 -0.03751,-0.6801207 -0.05001,-0.9101987 -0.0125,-0.230078 -0.03501,-0.6851772 -0.05251,-1.0113318 -0.015,-0.3261545 -0.03501,-0.6421956 -0.04501,-0.7003472 l -0.015,-0.1061897 -1.27538,1.1377481 c -0.700208,0.6244973 -1.292886,1.1352199 -1.312891,1.1352199 -0.02251,0 -0.250075,-0.2376629 -0.510154,-0.5309491 -0.840272,-0.9481236 -1.663018,-1.7192641 -2.525775,-2.3690448 -2.068124,-1.5625077 -4.513854,-2.60923604 -7.07462,-3.02893871 -0.562667,-0.0910199 -0.965287,-0.13400147 -1.74302,-0.18962471 -0.717714,-0.0530949 -1.045312,-0.0581516 -1.462936,-0.022755 z"
     id="path2196"
     style="display:none;stroke-width:0.0025145" />
  <g
     inkscape:groupmode="layer"
     id="layer1"
     inkscape:label="Layer 1"
     transform="translate(-0.57514643,-0.3999979)">
    <path
       id="path456"
       style="display:inline;fill:#3cb722;fill-opacity:1;stroke:#000000;stroke-width:0.298802;stroke-linecap:round;stroke-linejoin:round;stroke-dasharray:none"
       d="M 21.198204,1.6929808 A 15.521992,15.349056 0 0 0 10.26204,2.4547017 15.521992,15.349056 0 0 0 2.6053703,22.720351 15.521992,15.349056 0 0 0 23.048085,30.426844 15.521992,15.349056 0 0 0 26.644717,28.195058 L 23.911322,22.452586 A 9.3326488,9.2286705 0 0 1 20.683586,24.824991 9.3326488,9.2286705 0 0 1 8.3941452,20.190947 9.3326488,9.2286705 0 0 1 12.99792,8.0052832 9.3326488,9.2286705 0 0 1 19.572645,7.5476645 9.3326488,9.2286705 0 0 1 24.101944,10.567095 l -3.191483,2.39138 10.709904,3.473053 0.305209,-11.7287294 -3.000994,2.2496792 a 15.521992,15.349056 0 0 0 -7.726376,-5.259497 z" />
  </g>
</svg>
